# xmcd
#
# Track frame offsets:
#	183
#	23283
#	37733
#	48265
#	60473
#	79270
#	89033
#	106550
#	119285
#	138413
#	149913
#
# Disc length: 2270 seconds
#
# Revision: 2
# Processed by: cddbd v1.4PL0 Copyright (c) Steve Scherf et al.
# Submitted via: audiograbber 1.81.01
#
DISCID=8908dc0b
DTITLE=Nine Below Zero - On The Road Again
DYEAR=1991
DGENRE=R&B
TTITLE0=On The Road Again
TTITLE1=No More The Blues
TTITLE2=Kiddio
TTITLE3=Much Too Much
TTITLE4=Doin' Fine
TTITLE5=Mama Talk To Your Daughter
TTITLE6=Cold Cruel Heart
TTITLE7=Sweet Little Contessa
TTITLE8=Hard Goin' Up (Twice As Hard Coming Down)
TTITLE9=Sioux's Shoes
TTITLE10=The Bird
EXTD=
EXTT0=
EXTT1=
EXTT2=
EXTT3=
EXTT4=
EXTT5=
EXTT6=
EXTT7=
EXTT8=
EXTT9=
EXTT10=
PLAYORDER=
